<svg xmlns="http://www.w3.org/2000/svg" xmlns:xlink="http://www.w3.org/1999/xlink" width="600" height="400" viewBox="0 0 2400 1600">
<defs>
  <clipPath id="clip170">
    <rect x="0" y="0" width="2400" height="1600"></rect>
  </clipPath>
</defs>
<path clip-path="url(#clip170)" d="
M0 1600 L2400 1600 L2400 0 L0 0  Z
  " fill="#ffffff" fill-rule="evenodd" fill-opacity="1"></path>
<defs>
  <clipPath id="clip171">
    <rect x="480" y="0" width="1681" height="1600"></rect>
  </clipPath>
</defs>
<path clip-path="url(#clip170)" d="
M186.436 1486.45 L2352.76 1486.45 L2352.76 47.2441 L186.436 47.2441  Z
  " fill="#ffffff" fill-rule="evenodd" fill-opacity="1"></path>
<defs>
  <clipPath id="clip172">
    <rect x="186" y="47" width="2167" height="1440"></rect>
  </clipPath>
</defs>
<polyline clip-path="url(#clip172)" style="stroke:#000000; stroke-linecap:butt; stroke-linejoin:round; stroke-width:2; stroke-opacity:0.1; fill:none" points="
  656.487,1486.45 656.487,47.2441 
  "></polyline>
<polyline clip-path="url(#clip172)" style="stroke:#000000; stroke-linecap:butt; stroke-linejoin:round; stroke-width:2; stroke-opacity:0.1; fill:none" points="
  1167.41,1486.45 1167.41,47.2441 
  "></polyline>
<polyline clip-path="url(#clip172)" style="stroke:#000000; stroke-linecap:butt; stroke-linejoin:round; stroke-width:2; stroke-opacity:0.1; fill:none" points="
  1678.34,1486.45 1678.34,47.2441 
  "></polyline>
<polyline clip-path="url(#clip172)" style="stroke:#000000; stroke-linecap:butt; stroke-linejoin:round; stroke-width:2; stroke-opacity:0.1; fill:none" points="
  2189.26,1486.45 2189.26,47.2441 
  "></polyline>
<polyline clip-path="url(#clip170)" style="stroke:#000000; stroke-linecap:butt; stroke-linejoin:round; stroke-width:4; stroke-opacity:1; fill:none" points="
  186.436,1486.45 2352.76,1486.45 
  "></polyline>
<polyline clip-path="url(#clip170)" style="stroke:#000000; stroke-linecap:butt; stroke-linejoin:round; stroke-width:4; stroke-opacity:1; fill:none" points="
  656.487,1486.45 656.487,1467.55 
  "></polyline>
<polyline clip-path="url(#clip170)" style="stroke:#000000; stroke-linecap:butt; stroke-linejoin:round; stroke-width:4; stroke-opacity:1; fill:none" points="
  1167.41,1486.45 1167.41,1467.55 
  "></polyline>
<polyline clip-path="url(#clip170)" style="stroke:#000000; stroke-linecap:butt; stroke-linejoin:round; stroke-width:4; stroke-opacity:1; fill:none" points="
  1678.34,1486.45 1678.34,1467.55 
  "></polyline>
<polyline clip-path="url(#clip170)" style="stroke:#000000; stroke-linecap:butt; stroke-linejoin:round; stroke-width:4; stroke-opacity:1; fill:none" points="
  2189.26,1486.45 2189.26,1467.55 
  "></polyline>
<path clip-path="url(#clip170)" d="M646.764 1512.56 L665.121 1512.56 L665.121 1516.5 L651.047 1516.5 L651.047 1524.97 Q652.065 1524.62 653.084 1524.46 Q654.102 1524.27 655.121 1524.27 Q660.908 1524.27 664.287 1527.44 Q667.667 1530.62 667.667 1536.03 Q667.667 1541.61 664.195 1544.71 Q660.723 1547.79 654.403 1547.79 Q652.227 1547.79 649.959 1547.42 Q647.713 1547.05 645.306 1546.31 L645.306 1541.61 Q647.389 1542.74 649.612 1543.3 Q651.834 1543.86 654.311 1543.86 Q658.315 1543.86 660.653 1541.75 Q662.991 1539.64 662.991 1536.03 Q662.991 1532.42 660.653 1530.31 Q658.315 1528.21 654.311 1528.21 Q652.436 1528.21 650.561 1528.62 Q648.709 1529.04 646.764 1529.92 L646.764 1512.56 Z" fill="#000000" fill-rule="evenodd" fill-opacity="1"></path><path clip-path="url(#clip170)" d="M1142.1 1543.18 L1149.74 1543.18 L1149.74 1516.82 L1141.43 1518.49 L1141.43 1514.23 L1149.69 1512.56 L1154.37 1512.56 L1154.37 1543.18 L1162.01 1543.18 L1162.01 1547.12 L1142.1 1547.12 L1142.1 1543.18 Z" fill="#000000" fill-rule="evenodd" fill-opacity="1"></path><path clip-path="url(#clip170)" d="M1181.45 1515.64 Q1177.84 1515.64 1176.01 1519.2 Q1174.21 1522.75 1174.21 1529.87 Q1174.21 1536.98 1176.01 1540.55 Q1177.84 1544.09 1181.45 1544.09 Q1185.08 1544.09 1186.89 1540.55 Q1188.72 1536.98 1188.72 1529.87 Q1188.72 1522.75 1186.89 1519.2 Q1185.08 1515.64 1181.45 1515.64 M1181.45 1511.93 Q1187.26 1511.93 1190.32 1516.54 Q1193.39 1521.12 1193.39 1529.87 Q1193.39 1538.6 1190.32 1543.21 Q1187.26 1547.79 1181.45 1547.79 Q1175.64 1547.79 1172.56 1543.21 Q1169.51 1538.6 1169.51 1529.87 Q1169.51 1521.12 1172.56 1516.54 Q1175.64 1511.93 1181.45 1511.93 Z" fill="#000000" fill-rule="evenodd" fill-opacity="1"></path><path clip-path="url(#clip170)" d="M1653.52 1543.18 L1661.16 1543.18 L1661.16 1516.82 L1652.85 1518.49 L1652.85 1514.23 L1661.11 1512.56 L1665.79 1512.56 L1665.79 1543.18 L1673.43 1543.18 L1673.43 1547.12 L1653.52 1547.12 L1653.52 1543.18 Z" fill="#000000" fill-rule="evenodd" fill-opacity="1"></path><path clip-path="url(#clip170)" d="M1682.92 1512.56 L1701.28 1512.56 L1701.28 1516.5 L1687.2 1516.5 L1687.2 1524.97 Q1688.22 1524.62 1689.24 1524.46 Q1690.26 1524.27 1691.28 1524.27 Q1697.06 1524.27 1700.44 1527.44 Q1703.82 1530.62 1703.82 1536.03 Q1703.82 1541.61 1700.35 1544.71 Q1696.88 1547.79 1690.56 1547.79 Q1688.38 1547.79 1686.11 1547.42 Q1683.87 1547.05 1681.46 1546.31 L1681.46 1541.61 Q1683.54 1542.74 1685.77 1543.3 Q1687.99 1543.86 1690.47 1543.86 Q1694.47 1543.86 1696.81 1541.75 Q1699.15 1539.64 1699.15 1536.03 Q1699.15 1532.42 1696.81 1530.31 Q1694.47 1528.21 1690.47 1528.21 Q1688.59 1528.21 1686.72 1528.62 Q1684.86 1529.04 1682.92 1529.92 L1682.92 1512.56 Z" fill="#000000" fill-rule="evenodd" fill-opacity="1"></path><path clip-path="url(#clip170)" d="M2168.03 1543.18 L2184.35 1543.18 L2184.35 1547.12 L2162.41 1547.12 L2162.41 1543.18 Q2165.07 1540.43 2169.65 1535.8 Q2174.26 1531.15 2175.44 1529.81 Q2177.69 1527.28 2178.57 1525.55 Q2179.47 1523.79 2179.47 1522.1 Q2179.47 1519.34 2177.52 1517.61 Q2175.6 1515.87 2172.5 1515.87 Q2170.3 1515.87 2167.85 1516.63 Q2165.42 1517.4 2162.64 1518.95 L2162.64 1514.23 Q2165.46 1513.09 2167.92 1512.51 Q2170.37 1511.93 2172.41 1511.93 Q2177.78 1511.93 2180.97 1514.62 Q2184.17 1517.31 2184.17 1521.8 Q2184.17 1523.93 2183.36 1525.85 Q2182.57 1527.74 2180.46 1530.34 Q2179.89 1531.01 2176.78 1534.23 Q2173.68 1537.42 2168.03 1543.18 Z" fill="#000000" fill-rule="evenodd" fill-opacity="1"></path><path clip-path="url(#clip170)" d="M2204.17 1515.64 Q2200.56 1515.64 2198.73 1519.2 Q2196.92 1522.75 2196.92 1529.87 Q2196.92 1536.98 2198.73 1540.55 Q2200.56 1544.09 2204.17 1544.09 Q2207.8 1544.09 2209.61 1540.55 Q2211.44 1536.98 2211.44 1529.87 Q2211.44 1522.75 2209.61 1519.2 Q2207.8 1515.64 2204.17 1515.64 M2204.17 1511.93 Q2209.98 1511.93 2213.03 1516.54 Q2216.11 1521.12 2216.11 1529.87 Q2216.11 1538.6 2213.03 1543.21 Q2209.98 1547.79 2204.17 1547.79 Q2198.36 1547.79 2195.28 1543.21 Q2192.22 1538.6 2192.22 1529.87 Q2192.22 1521.12 2195.28 1516.54 Q2198.36 1511.93 2204.17 1511.93 Z" fill="#000000" fill-rule="evenodd" fill-opacity="1"></path><polyline clip-path="url(#clip172)" style="stroke:#000000; stroke-linecap:butt; stroke-linejoin:round; stroke-width:2; stroke-opacity:0.1; fill:none" points="
  186.436,1319.54 2352.76,1319.54 
  "></polyline>
<polyline clip-path="url(#clip172)" style="stroke:#000000; stroke-linecap:butt; stroke-linejoin:round; stroke-width:2; stroke-opacity:0.1; fill:none" points="
  186.436,1011.65 2352.76,1011.65 
  "></polyline>
<polyline clip-path="url(#clip172)" style="stroke:#000000; stroke-linecap:butt; stroke-linejoin:round; stroke-width:2; stroke-opacity:0.1; fill:none" points="
  186.436,703.76 2352.76,703.76 
  "></polyline>
<polyline clip-path="url(#clip172)" style="stroke:#000000; stroke-linecap:butt; stroke-linejoin:round; stroke-width:2; stroke-opacity:0.1; fill:none" points="
  186.436,395.868 2352.76,395.868 
  "></polyline>
<polyline clip-path="url(#clip172)" style="stroke:#000000; stroke-linecap:butt; stroke-linejoin:round; stroke-width:2; stroke-opacity:0.1; fill:none" points="
  186.436,87.9763 2352.76,87.9763 
  "></polyline>
<polyline clip-path="url(#clip170)" style="stroke:#000000; stroke-linecap:butt; stroke-linejoin:round; stroke-width:4; stroke-opacity:1; fill:none" points="
  186.436,1486.45 186.436,47.2441 
  "></polyline>
<polyline clip-path="url(#clip170)" style="stroke:#000000; stroke-linecap:butt; stroke-linejoin:round; stroke-width:4; stroke-opacity:1; fill:none" points="
  186.436,1319.54 205.334,1319.54 
  "></polyline>
<polyline clip-path="url(#clip170)" style="stroke:#000000; stroke-linecap:butt; stroke-linejoin:round; stroke-width:4; stroke-opacity:1; fill:none" points="
  186.436,1011.65 205.334,1011.65 
  "></polyline>
<polyline clip-path="url(#clip170)" style="stroke:#000000; stroke-linecap:butt; stroke-linejoin:round; stroke-width:4; stroke-opacity:1; fill:none" points="
  186.436,703.76 205.334,703.76 
  "></polyline>
<polyline clip-path="url(#clip170)" style="stroke:#000000; stroke-linecap:butt; stroke-linejoin:round; stroke-width:4; stroke-opacity:1; fill:none" points="
  186.436,395.868 205.334,395.868 
  "></polyline>
<polyline clip-path="url(#clip170)" style="stroke:#000000; stroke-linecap:butt; stroke-linejoin:round; stroke-width:4; stroke-opacity:1; fill:none" points="
  186.436,87.9763 205.334,87.9763 
  "></polyline>
<path clip-path="url(#clip170)" d="M62.9365 1305.34 Q59.3254 1305.34 57.4967 1308.91 Q55.6912 1312.45 55.6912 1319.58 Q55.6912 1326.69 57.4967 1330.25 Q59.3254 1333.79 62.9365 1333.79 Q66.5707 1333.79 68.3763 1330.25 Q70.205 1326.69 70.205 1319.58 Q70.205 1312.45 68.3763 1308.91 Q66.5707 1305.34 62.9365 1305.34 M62.9365 1301.64 Q68.7467 1301.64 71.8022 1306.25 Q74.8809 1310.83 74.8809 1319.58 Q74.8809 1328.31 71.8022 1332.91 Q68.7467 1337.5 62.9365 1337.5 Q57.1264 1337.5 54.0477 1332.91 Q50.9921 1328.31 50.9921 1319.58 Q50.9921 1310.83 54.0477 1306.25 Q57.1264 1301.64 62.9365 1301.64 Z" fill="#000000" fill-rule="evenodd" fill-opacity="1"></path><path clip-path="url(#clip170)" d="M83.0984 1330.95 L87.9827 1330.95 L87.9827 1336.82 L83.0984 1336.82 L83.0984 1330.95 Z" fill="#000000" fill-rule="evenodd" fill-opacity="1"></path><path clip-path="url(#clip170)" d="M108.168 1305.34 Q104.557 1305.34 102.728 1308.91 Q100.922 1312.45 100.922 1319.58 Q100.922 1326.69 102.728 1330.25 Q104.557 1333.79 108.168 1333.79 Q111.802 1333.79 113.608 1330.25 Q115.436 1326.69 115.436 1319.58 Q115.436 1312.45 113.608 1308.91 Q111.802 1305.34 108.168 1305.34 M108.168 1301.64 Q113.978 1301.64 117.033 1306.25 Q120.112 1310.83 120.112 1319.58 Q120.112 1328.31 117.033 1332.91 Q113.978 1337.5 108.168 1337.5 Q102.358 1337.5 99.2789 1332.91 Q96.2234 1328.31 96.2234 1319.58 Q96.2234 1310.83 99.2789 1306.25 Q102.358 1301.64 108.168 1301.64 Z" fill="#000000" fill-rule="evenodd" fill-opacity="1"></path><path clip-path="url(#clip170)" d="M138.908 1317.68 Q135.76 1317.68 133.908 1319.83 Q132.08 1321.99 132.08 1325.74 Q132.08 1329.46 133.908 1331.64 Q135.76 1333.79 138.908 1333.79 Q142.056 1333.79 143.885 1331.64 Q145.737 1329.46 145.737 1325.74 Q145.737 1321.99 143.885 1319.83 Q142.056 1317.68 138.908 1317.68 M148.191 1303.03 L148.191 1307.29 Q146.431 1306.45 144.626 1306.01 Q142.843 1305.57 141.084 1305.57 Q136.455 1305.57 134.001 1308.7 Q131.57 1311.82 131.223 1318.14 Q132.589 1316.13 134.649 1315.07 Q136.709 1313.98 139.186 1313.98 Q144.394 1313.98 147.404 1317.15 Q150.436 1320.3 150.436 1325.74 Q150.436 1331.06 147.288 1334.28 Q144.14 1337.5 138.908 1337.5 Q132.913 1337.5 129.742 1332.91 Q126.57 1328.31 126.57 1319.58 Q126.57 1311.39 130.459 1306.52 Q134.348 1301.64 140.899 1301.64 Q142.658 1301.64 144.441 1301.99 Q146.246 1302.33 148.191 1303.03 Z" fill="#000000" fill-rule="evenodd" fill-opacity="1"></path><path clip-path="url(#clip170)" d="M64.0013 997.451 Q60.3902 997.451 58.5615 1001.02 Q56.756 1004.56 56.756 1011.69 Q56.756 1018.79 58.5615 1022.36 Q60.3902 1025.9 64.0013 1025.9 Q67.6356 1025.9 69.4411 1022.36 Q71.2698 1018.79 71.2698 1011.69 Q71.2698 1004.56 69.4411 1001.02 Q67.6356 997.451 64.0013 997.451 M64.0013 993.748 Q69.8115 993.748 72.867 998.354 Q75.9457 1002.94 75.9457 1011.69 Q75.9457 1020.41 72.867 1025.02 Q69.8115 1029.6 64.0013 1029.6 Q58.1912 1029.6 55.1125 1025.02 Q52.0569 1020.41 52.0569 1011.69 Q52.0569 1002.94 55.1125 998.354 Q58.1912 993.748 64.0013 993.748 Z" fill="#000000" fill-rule="evenodd" fill-opacity="1"></path><path clip-path="url(#clip170)" d="M84.1632 1023.05 L89.0475 1023.05 L89.0475 1028.93 L84.1632 1028.93 L84.1632 1023.05 Z" fill="#000000" fill-rule="evenodd" fill-opacity="1"></path><path clip-path="url(#clip170)" d="M109.233 997.451 Q105.621 997.451 103.793 1001.02 Q101.987 1004.56 101.987 1011.69 Q101.987 1018.79 103.793 1022.36 Q105.621 1025.9 109.233 1025.9 Q112.867 1025.9 114.672 1022.36 Q116.501 1018.79 116.501 1011.69 Q116.501 1004.56 114.672 1001.02 Q112.867 997.451 109.233 997.451 M109.233 993.748 Q115.043 993.748 118.098 998.354 Q121.177 1002.94 121.177 1011.69 Q121.177 1020.41 118.098 1025.02 Q115.043 1029.6 109.233 1029.6 Q103.422 1029.6 100.344 1025.02 Q97.2882 1020.41 97.2882 1011.69 Q97.2882 1002.94 100.344 998.354 Q103.422 993.748 109.233 993.748 Z" fill="#000000" fill-rule="evenodd" fill-opacity="1"></path><path clip-path="url(#clip170)" d="M128.214 994.373 L150.436 994.373 L150.436 996.363 L137.89 1028.93 L133.006 1028.93 L144.811 998.308 L128.214 998.308 L128.214 994.373 Z" fill="#000000" fill-rule="evenodd" fill-opacity="1"></path><path clip-path="url(#clip170)" d="M63.1911 689.559 Q59.58 689.559 57.7513 693.124 Q55.9458 696.666 55.9458 703.795 Q55.9458 710.902 57.7513 714.466 Q59.58 718.008 63.1911 718.008 Q66.8254 718.008 68.6309 714.466 Q70.4596 710.902 70.4596 703.795 Q70.4596 696.666 68.6309 693.124 Q66.8254 689.559 63.1911 689.559 M63.1911 685.855 Q69.0013 685.855 72.0568 690.462 Q75.1355 695.045 75.1355 703.795 Q75.1355 712.522 72.0568 717.128 Q69.0013 721.712 63.1911 721.712 Q57.381 721.712 54.3023 717.128 Q51.2468 712.522 51.2468 703.795 Q51.2468 695.045 54.3023 690.462 Q57.381 685.855 63.1911 685.855 Z" fill="#000000" fill-rule="evenodd" fill-opacity="1"></path><path clip-path="url(#clip170)" d="M83.3531 715.161 L88.2373 715.161 L88.2373 721.04 L83.3531 721.04 L83.3531 715.161 Z" fill="#000000" fill-rule="evenodd" fill-opacity="1"></path><path clip-path="url(#clip170)" d="M108.422 689.559 Q104.811 689.559 102.983 693.124 Q101.177 696.666 101.177 703.795 Q101.177 710.902 102.983 714.466 Q104.811 718.008 108.422 718.008 Q112.057 718.008 113.862 714.466 Q115.691 710.902 115.691 703.795 Q115.691 696.666 113.862 693.124 Q112.057 689.559 108.422 689.559 M108.422 685.855 Q114.233 685.855 117.288 690.462 Q120.367 695.045 120.367 703.795 Q120.367 712.522 117.288 717.128 Q114.233 721.712 108.422 721.712 Q102.612 721.712 99.5335 717.128 Q96.478 712.522 96.478 703.795 Q96.478 695.045 99.5335 690.462 Q102.612 685.855 108.422 685.855 Z" fill="#000000" fill-rule="evenodd" fill-opacity="1"></path><path clip-path="url(#clip170)" d="M138.584 704.629 Q135.251 704.629 133.33 706.411 Q131.432 708.193 131.432 711.318 Q131.432 714.443 133.33 716.226 Q135.251 718.008 138.584 718.008 Q141.918 718.008 143.839 716.226 Q145.76 714.42 145.76 711.318 Q145.76 708.193 143.839 706.411 Q141.941 704.629 138.584 704.629 M133.908 702.638 Q130.899 701.897 129.209 699.837 Q127.543 697.777 127.543 694.814 Q127.543 690.67 130.482 688.263 Q133.445 685.855 138.584 685.855 Q143.746 685.855 146.686 688.263 Q149.626 690.67 149.626 694.814 Q149.626 697.777 147.936 699.837 Q146.269 701.897 143.283 702.638 Q146.663 703.425 148.538 705.717 Q150.436 708.008 150.436 711.318 Q150.436 716.341 147.357 719.027 Q144.302 721.712 138.584 721.712 Q132.867 721.712 129.788 719.027 Q126.732 716.341 126.732 711.318 Q126.732 708.008 128.631 705.717 Q130.529 703.425 133.908 702.638 M132.195 695.254 Q132.195 697.939 133.862 699.443 Q135.552 700.948 138.584 700.948 Q141.593 700.948 143.283 699.443 Q144.996 697.939 144.996 695.254 Q144.996 692.568 143.283 691.064 Q141.593 689.559 138.584 689.559 Q135.552 689.559 133.862 691.064 Q132.195 692.568 132.195 695.254 Z" fill="#000000" fill-rule="evenodd" fill-opacity="1"></path><path clip-path="url(#clip170)" d="M63.2837 381.667 Q59.6726 381.667 57.8439 385.232 Q56.0384 388.774 56.0384 395.903 Q56.0384 403.01 57.8439 406.574 Q59.6726 410.116 63.2837 410.116 Q66.918 410.116 68.7235 406.574 Q70.5522 403.01 70.5522 395.903 Q70.5522 388.774 68.7235 385.232 Q66.918 381.667 63.2837 381.667 M63.2837 377.963 Q69.0939 377.963 72.1494 382.57 Q75.2281 387.153 75.2281 395.903 Q75.2281 404.63 72.1494 409.236 Q69.0939 413.82 63.2837 413.82 Q57.4736 413.82 54.3949 409.236 Q51.3393 404.63 51.3393 395.903 Q51.3393 387.153 54.3949 382.57 Q57.4736 377.963 63.2837 377.963 Z" fill="#000000" fill-rule="evenodd" fill-opacity="1"></path><path clip-path="url(#clip170)" d="M83.4457 407.269 L88.3299 407.269 L88.3299 413.148 L83.4457 413.148 L83.4457 407.269 Z" fill="#000000" fill-rule="evenodd" fill-opacity="1"></path><path clip-path="url(#clip170)" d="M108.515 381.667 Q104.904 381.667 103.075 385.232 Q101.27 388.774 101.27 395.903 Q101.27 403.01 103.075 406.574 Q104.904 410.116 108.515 410.116 Q112.149 410.116 113.955 406.574 Q115.783 403.01 115.783 395.903 Q115.783 388.774 113.955 385.232 Q112.149 381.667 108.515 381.667 M108.515 377.963 Q114.325 377.963 117.381 382.57 Q120.459 387.153 120.459 395.903 Q120.459 404.63 117.381 409.236 Q114.325 413.82 108.515 413.82 Q102.705 413.82 99.6261 409.236 Q96.5706 404.63 96.5706 395.903 Q96.5706 387.153 99.6261 382.57 Q102.705 377.963 108.515 377.963 Z" fill="#000000" fill-rule="evenodd" fill-opacity="1"></path><path clip-path="url(#clip170)" d="M128.816 412.431 L128.816 408.172 Q130.575 409.005 132.381 409.445 Q134.186 409.885 135.922 409.885 Q140.552 409.885 142.982 406.783 Q145.436 403.658 145.783 397.315 Q144.441 399.306 142.381 400.371 Q140.32 401.435 137.82 401.435 Q132.635 401.435 129.603 398.311 Q126.594 395.162 126.594 389.723 Q126.594 384.399 129.742 381.181 Q132.89 377.963 138.121 377.963 Q144.117 377.963 147.265 382.57 Q150.436 387.153 150.436 395.903 Q150.436 404.074 146.547 408.959 Q142.681 413.82 136.131 413.82 Q134.371 413.82 132.566 413.472 Q130.76 413.125 128.816 412.431 M138.121 397.778 Q141.269 397.778 143.098 395.625 Q144.95 393.473 144.95 389.723 Q144.95 385.996 143.098 383.843 Q141.269 381.667 138.121 381.667 Q134.973 381.667 133.121 383.843 Q131.293 385.996 131.293 389.723 Q131.293 393.473 133.121 395.625 Q134.973 397.778 138.121 397.778 Z" fill="#000000" fill-rule="evenodd" fill-opacity="1"></path><path clip-path="url(#clip170)" d="M63.0985 73.775 Q59.4875 73.775 57.6588 77.3398 Q55.8532 80.8814 55.8532 88.011 Q55.8532 95.1174 57.6588 98.6822 Q59.4875 102.224 63.0985 102.224 Q66.7328 102.224 68.5383 98.6822 Q70.367 95.1174 70.367 88.011 Q70.367 80.8814 68.5383 77.3398 Q66.7328 73.775 63.0985 73.775 M63.0985 70.0713 Q68.9087 70.0713 71.9642 74.6777 Q75.0429 79.261 75.0429 88.011 Q75.0429 96.7378 71.9642 101.344 Q68.9087 105.928 63.0985 105.928 Q57.2884 105.928 54.2097 101.344 Q51.1542 96.7378 51.1542 88.011 Q51.1542 79.261 54.2097 74.6777 Q57.2884 70.0713 63.0985 70.0713 Z" fill="#000000" fill-rule="evenodd" fill-opacity="1"></path><path clip-path="url(#clip170)" d="M83.2605 99.3767 L88.1447 99.3767 L88.1447 105.256 L83.2605 105.256 L83.2605 99.3767 Z" fill="#000000" fill-rule="evenodd" fill-opacity="1"></path><path clip-path="url(#clip170)" d="M99.14 101.321 L106.779 101.321 L106.779 74.9555 L98.4687 76.6222 L98.4687 72.3629 L106.733 70.6963 L111.408 70.6963 L111.408 101.321 L119.047 101.321 L119.047 105.256 L99.14 105.256 L99.14 101.321 Z" fill="#000000" fill-rule="evenodd" fill-opacity="1"></path><path clip-path="url(#clip170)" d="M138.492 73.775 Q134.881 73.775 133.052 77.3398 Q131.246 80.8814 131.246 88.011 Q131.246 95.1174 133.052 98.6822 Q134.881 102.224 138.492 102.224 Q142.126 102.224 143.931 98.6822 Q145.76 95.1174 145.76 88.011 Q145.76 80.8814 143.931 77.3398 Q142.126 73.775 138.492 73.775 M138.492 70.0713 Q144.302 70.0713 147.357 74.6777 Q150.436 79.261 150.436 88.011 Q150.436 96.7378 147.357 101.344 Q144.302 105.928 138.492 105.928 Q132.682 105.928 129.603 101.344 Q126.547 96.7378 126.547 88.011 Q126.547 79.261 129.603 74.6777 Q132.682 70.0713 138.492 70.0713 Z" fill="#000000" fill-rule="evenodd" fill-opacity="1"></path><polyline clip-path="url(#clip172)" style="stroke:#009af9; stroke-linecap:butt; stroke-linejoin:round; stroke-width:4; stroke-opacity:1; fill:none" points="
  247.747,87.9763 349.932,634.485 452.117,961.024 554.302,1156.13 656.487,1272.71 758.671,1342.36 860.856,1383.98 963.041,1408.85 1065.23,1423.7 1167.41,1432.58 
  1269.6,1437.89 1371.78,1441.06 1473.97,1442.95 1576.15,1444.08 1678.34,1444.76 1780.52,1445.16 1882.71,1445.4 1984.89,1445.55 2087.08,1445.63 2189.26,1445.68 
  2291.44,1445.72 
  "></polyline>
<path clip-path="url(#clip170)" d="
M1297.44 198.898 L2280.55 198.898 L2280.55 95.2176 L1297.44 95.2176  Z
  " fill="#ffffff" fill-rule="evenodd" fill-opacity="1"></path>
<polyline clip-path="url(#clip170)" style="stroke:#000000; stroke-linecap:butt; stroke-linejoin:round; stroke-width:4; stroke-opacity:1; fill:none" points="
  1297.44,198.898 2280.55,198.898 2280.55,95.2176 1297.44,95.2176 1297.44,198.898 
  "></polyline>
<polyline clip-path="url(#clip170)" style="stroke:#009af9; stroke-linecap:butt; stroke-linejoin:round; stroke-width:4; stroke-opacity:1; fill:none" points="
  1321.51,147.058 1465.93,147.058 
  "></polyline>
<path clip-path="url(#clip170)" d="M1490 154.106 L1490 138.412 L1494.26 138.412 L1494.26 153.944 Q1494.26 157.625 1495.7 159.476 Q1497.13 161.305 1500 161.305 Q1503.45 161.305 1505.44 159.106 Q1507.45 156.907 1507.45 153.111 L1507.45 138.412 L1511.71 138.412 L1511.71 164.338 L1507.45 164.338 L1507.45 160.356 Q1505.9 162.717 1503.84 163.875 Q1501.81 165.009 1499.1 165.009 Q1494.63 165.009 1492.32 162.231 Q1490 159.453 1490 154.106 M1500.72 137.787 L1500.72 137.787 Z" fill="#000000" fill-rule="evenodd" fill-opacity="1"></path><path clip-path="url(#clip170)" d="M1542.04 148.689 L1542.04 164.338 L1537.78 164.338 L1537.78 148.828 Q1537.78 145.148 1536.34 143.319 Q1534.91 141.49 1532.04 141.49 Q1528.59 141.49 1526.6 143.69 Q1524.61 145.889 1524.61 149.685 L1524.61 164.338 L1520.33 164.338 L1520.33 138.412 L1524.61 138.412 L1524.61 142.44 Q1526.14 140.102 1528.2 138.944 Q1530.28 137.787 1532.99 137.787 Q1537.45 137.787 1539.75 140.565 Q1542.04 143.319 1542.04 148.689 Z" fill="#000000" fill-rule="evenodd" fill-opacity="1"></path><path clip-path="url(#clip170)" d="M1572.71 150.31 L1572.71 152.393 L1553.13 152.393 Q1553.4 156.791 1555.76 159.106 Q1558.15 161.398 1562.39 161.398 Q1564.84 161.398 1567.13 160.796 Q1569.45 160.194 1571.71 158.99 L1571.71 163.018 Q1569.42 163.99 1567.01 164.5 Q1564.61 165.009 1562.13 165.009 Q1555.93 165.009 1552.29 161.398 Q1548.68 157.787 1548.68 151.629 Q1548.68 145.264 1552.11 141.537 Q1555.56 137.787 1561.39 137.787 Q1566.62 137.787 1569.65 141.166 Q1572.71 144.523 1572.71 150.31 M1568.45 149.06 Q1568.4 145.565 1566.48 143.481 Q1564.58 141.398 1561.44 141.398 Q1557.87 141.398 1555.72 143.412 Q1553.59 145.426 1553.26 149.083 L1568.45 149.06 Z" fill="#000000" fill-rule="evenodd" fill-opacity="1"></path><path clip-path="url(#clip170)" d="M1599.89 143.389 Q1601.48 140.518 1603.7 139.153 Q1605.93 137.787 1608.94 137.787 Q1612.99 137.787 1615.19 140.634 Q1617.38 143.458 1617.38 148.689 L1617.38 164.338 L1613.1 164.338 L1613.1 148.828 Q1613.1 145.102 1611.78 143.296 Q1610.46 141.49 1607.76 141.49 Q1604.45 141.49 1602.52 143.69 Q1600.6 145.889 1600.6 149.685 L1600.6 164.338 L1596.32 164.338 L1596.32 148.828 Q1596.32 145.078 1595 143.296 Q1593.68 141.49 1590.93 141.49 Q1587.66 141.49 1585.74 143.713 Q1583.82 145.912 1583.82 149.685 L1583.82 164.338 L1579.54 164.338 L1579.54 138.412 L1583.82 138.412 L1583.82 142.44 Q1585.28 140.055 1587.32 138.921 Q1589.35 137.787 1592.15 137.787 Q1594.98 137.787 1596.95 139.222 Q1598.94 140.657 1599.89 143.389 Z" fill="#000000" fill-rule="evenodd" fill-opacity="1"></path><path clip-path="url(#clip170)" d="M1630 160.449 L1630 174.199 L1625.72 174.199 L1625.72 138.412 L1630 138.412 L1630 142.347 Q1631.34 140.032 1633.38 138.921 Q1635.44 137.787 1638.29 137.787 Q1643.01 137.787 1645.95 141.537 Q1648.91 145.287 1648.91 151.398 Q1648.91 157.509 1645.95 161.259 Q1643.01 165.009 1638.29 165.009 Q1635.44 165.009 1633.38 163.898 Q1631.34 162.763 1630 160.449 M1644.49 151.398 Q1644.49 146.699 1642.55 144.037 Q1640.63 141.352 1637.25 141.352 Q1633.87 141.352 1631.92 144.037 Q1630 146.699 1630 151.398 Q1630 156.097 1631.92 158.782 Q1633.87 161.444 1637.25 161.444 Q1640.63 161.444 1642.55 158.782 Q1644.49 156.097 1644.49 151.398 Z" fill="#000000" fill-rule="evenodd" fill-opacity="1"></path><path clip-path="url(#clip170)" d="M1655.97 128.319 L1660.23 128.319 L1660.23 164.338 L1655.97 164.338 L1655.97 128.319 Z" fill="#000000" fill-rule="evenodd" fill-opacity="1"></path><path clip-path="url(#clip170)" d="M1679.19 141.398 Q1675.76 141.398 1673.77 144.083 Q1671.78 146.745 1671.78 151.398 Q1671.78 156.051 1673.75 158.736 Q1675.74 161.398 1679.19 161.398 Q1682.59 161.398 1684.58 158.713 Q1686.57 156.027 1686.57 151.398 Q1686.57 146.791 1684.58 144.106 Q1682.59 141.398 1679.19 141.398 M1679.19 137.787 Q1684.75 137.787 1687.92 141.398 Q1691.09 145.009 1691.09 151.398 Q1691.09 157.764 1687.92 161.398 Q1684.75 165.009 1679.19 165.009 Q1673.61 165.009 1670.44 161.398 Q1667.29 157.764 1667.29 151.398 Q1667.29 145.009 1670.44 141.398 Q1673.61 137.787 1679.19 137.787 Z" fill="#000000" fill-rule="evenodd" fill-opacity="1"></path><path clip-path="url(#clip170)" d="M1708.94 166.745 Q1707.13 171.375 1705.42 172.787 Q1703.7 174.199 1700.83 174.199 L1697.43 174.199 L1697.43 170.634 L1699.93 170.634 Q1701.69 170.634 1702.66 169.8 Q1703.63 168.967 1704.82 165.865 L1705.58 163.921 L1695.09 138.412 L1699.61 138.412 L1707.71 158.689 L1715.81 138.412 L1720.32 138.412 L1708.94 166.745 Z" fill="#000000" fill-rule="evenodd" fill-opacity="1"></path><path clip-path="url(#clip170)" d="M1746.39 143.389 Q1747.99 140.518 1750.21 139.153 Q1752.43 137.787 1755.44 137.787 Q1759.49 137.787 1761.69 140.634 Q1763.89 143.458 1763.89 148.689 L1763.89 164.338 L1759.61 164.338 L1759.61 148.828 Q1759.61 145.102 1758.29 143.296 Q1756.97 141.49 1754.26 141.49 Q1750.95 141.49 1749.03 143.69 Q1747.11 145.889 1747.11 149.685 L1747.11 164.338 L1742.82 164.338 L1742.82 148.828 Q1742.82 145.078 1741.5 143.296 Q1740.19 141.49 1737.43 141.49 Q1734.17 141.49 1732.25 143.713 Q1730.32 145.912 1730.32 149.685 L1730.32 164.338 L1726.04 164.338 L1726.04 138.412 L1730.32 138.412 L1730.32 142.44 Q1731.78 140.055 1733.82 138.921 Q1735.86 137.787 1738.66 137.787 Q1741.48 137.787 1743.45 139.222 Q1745.44 140.657 1746.39 143.389 Z" fill="#000000" fill-rule="evenodd" fill-opacity="1"></path><path clip-path="url(#clip170)" d="M1794.56 150.31 L1794.56 152.393 L1774.98 152.393 Q1775.25 156.791 1777.62 159.106 Q1780 161.398 1784.24 161.398 Q1786.69 161.398 1788.98 160.796 Q1791.3 160.194 1793.56 158.99 L1793.56 163.018 Q1791.27 163.99 1788.87 164.5 Q1786.46 165.009 1783.98 165.009 Q1777.78 165.009 1774.14 161.398 Q1770.53 157.787 1770.53 151.629 Q1770.53 145.264 1773.96 141.537 Q1777.41 137.787 1783.24 137.787 Q1788.47 137.787 1791.5 141.166 Q1794.56 144.523 1794.56 150.31 M1790.3 149.06 Q1790.25 145.565 1788.33 143.481 Q1786.43 141.398 1783.29 141.398 Q1779.72 141.398 1777.57 143.412 Q1775.44 145.426 1775.12 149.083 L1790.3 149.06 Z" fill="#000000" fill-rule="evenodd" fill-opacity="1"></path><path clip-path="url(#clip170)" d="M1823.1 148.689 L1823.1 164.338 L1818.84 164.338 L1818.84 148.828 Q1818.84 145.148 1817.41 143.319 Q1815.97 141.49 1813.1 141.49 Q1809.65 141.49 1807.66 143.69 Q1805.67 145.889 1805.67 149.685 L1805.67 164.338 L1801.39 164.338 L1801.39 138.412 L1805.67 138.412 L1805.67 142.44 Q1807.2 140.102 1809.26 138.944 Q1811.34 137.787 1814.05 137.787 Q1818.52 137.787 1820.81 140.565 Q1823.1 143.319 1823.1 148.689 Z" fill="#000000" fill-rule="evenodd" fill-opacity="1"></path><path clip-path="url(#clip170)" d="M1835.81 131.051 L1835.81 138.412 L1844.58 138.412 L1844.58 141.722 L1835.81 141.722 L1835.81 155.796 Q1835.81 158.967 1836.67 159.87 Q1837.55 160.773 1840.21 160.773 L1844.58 160.773 L1844.58 164.338 L1840.21 164.338 Q1835.28 164.338 1833.4 162.509 Q1831.53 160.657 1831.53 155.796 L1831.53 141.722 L1828.4 141.722 L1828.4 138.412 L1831.53 138.412 L1831.53 131.051 L1835.81 131.051 Z" fill="#000000" fill-rule="evenodd" fill-opacity="1"></path><path clip-path="url(#clip170)" d="M1880.28 142.393 Q1879.56 141.977 1878.7 141.791 Q1877.87 141.583 1876.85 141.583 Q1873.24 141.583 1871.3 143.944 Q1869.37 146.282 1869.37 150.68 L1869.37 164.338 L1865.09 164.338 L1865.09 138.412 L1869.37 138.412 L1869.37 142.44 Q1870.72 140.078 1872.87 138.944 Q1875.02 137.787 1878.1 137.787 Q1878.54 137.787 1879.07 137.856 Q1879.61 137.903 1880.25 138.018 L1880.28 142.393 Z" fill="#000000" fill-rule="evenodd" fill-opacity="1"></path><path clip-path="url(#clip170)" d="M1896.53 151.305 Q1891.36 151.305 1889.37 152.486 Q1887.38 153.666 1887.38 156.514 Q1887.38 158.782 1888.86 160.125 Q1890.37 161.444 1892.94 161.444 Q1896.48 161.444 1898.61 158.944 Q1900.76 156.421 1900.76 152.254 L1900.76 151.305 L1896.53 151.305 M1905.02 149.546 L1905.02 164.338 L1900.76 164.338 L1900.76 160.402 Q1899.3 162.763 1897.13 163.898 Q1894.95 165.009 1891.8 165.009 Q1887.82 165.009 1885.46 162.787 Q1883.12 160.541 1883.12 156.791 Q1883.12 152.416 1886.04 150.194 Q1888.98 147.972 1894.79 147.972 L1900.76 147.972 L1900.76 147.555 Q1900.76 144.615 1898.82 143.018 Q1896.9 141.398 1893.4 141.398 Q1891.18 141.398 1889.07 141.93 Q1886.97 142.463 1885.02 143.527 L1885.02 139.592 Q1887.36 138.69 1889.56 138.25 Q1891.76 137.787 1893.84 137.787 Q1899.47 137.787 1902.24 140.703 Q1905.02 143.62 1905.02 149.546 Z" fill="#000000" fill-rule="evenodd" fill-opacity="1"></path><path clip-path="url(#clip170)" d="M1918.01 131.051 L1918.01 138.412 L1926.78 138.412 L1926.78 141.722 L1918.01 141.722 L1918.01 155.796 Q1918.01 158.967 1918.86 159.87 Q1919.74 160.773 1922.41 160.773 L1926.78 160.773 L1926.78 164.338 L1922.41 164.338 Q1917.48 164.338 1915.6 162.509 Q1913.73 160.657 1913.73 155.796 L1913.73 141.722 L1910.6 141.722 L1910.6 138.412 L1913.73 138.412 L1913.73 131.051 L1918.01 131.051 Z" fill="#000000" fill-rule="evenodd" fill-opacity="1"></path><path clip-path="url(#clip170)" d="M1954.56 150.31 L1954.56 152.393 L1934.98 152.393 Q1935.25 156.791 1937.61 159.106 Q1940 161.398 1944.24 161.398 Q1946.69 161.398 1948.98 160.796 Q1951.3 160.194 1953.56 158.99 L1953.56 163.018 Q1951.27 163.99 1948.86 164.5 Q1946.46 165.009 1943.98 165.009 Q1937.78 165.009 1934.14 161.398 Q1930.53 157.787 1930.53 151.629 Q1930.53 145.264 1933.96 141.537 Q1937.41 137.787 1943.24 137.787 Q1948.47 137.787 1951.5 141.166 Q1954.56 144.523 1954.56 150.31 M1950.3 149.06 Q1950.25 145.565 1948.33 143.481 Q1946.43 141.398 1943.29 141.398 Q1939.72 141.398 1937.57 143.412 Q1935.44 145.426 1935.11 149.083 L1950.3 149.06 Z" fill="#000000" fill-rule="evenodd" fill-opacity="1"></path><path clip-path="url(#clip170)" d="M1980.83 131.051 L1980.83 138.412 L1989.61 138.412 L1989.61 141.722 L1980.83 141.722 L1980.83 155.796 Q1980.83 158.967 1981.69 159.87 Q1982.57 160.773 1985.23 160.773 L1989.61 160.773 L1989.61 164.338 L1985.23 164.338 Q1980.3 164.338 1978.42 162.509 Q1976.55 160.657 1976.55 155.796 L1976.55 141.722 L1973.42 141.722 L1973.42 138.412 L1976.55 138.412 L1976.55 131.051 L1980.83 131.051 Z" fill="#000000" fill-rule="evenodd" fill-opacity="1"></path><path clip-path="url(#clip170)" d="M1995.21 138.412 L1999.47 138.412 L1999.47 164.338 L1995.21 164.338 L1995.21 138.412 M1995.21 128.319 L1999.47 128.319 L1999.47 133.713 L1995.21 133.713 L1995.21 128.319 Z" fill="#000000" fill-rule="evenodd" fill-opacity="1"></path><path clip-path="url(#clip170)" d="M2028.56 143.389 Q2030.16 140.518 2032.38 139.153 Q2034.6 137.787 2037.61 137.787 Q2041.67 137.787 2043.86 140.634 Q2046.06 143.458 2046.06 148.689 L2046.06 164.338 L2041.78 164.338 L2041.78 148.828 Q2041.78 145.102 2040.46 143.296 Q2039.14 141.49 2036.43 141.49 Q2033.12 141.49 2031.2 143.69 Q2029.28 145.889 2029.28 149.685 L2029.28 164.338 L2025 164.338 L2025 148.828 Q2025 145.078 2023.68 143.296 Q2022.36 141.49 2019.61 141.49 Q2016.34 141.49 2014.42 143.713 Q2012.5 145.912 2012.5 149.685 L2012.5 164.338 L2008.22 164.338 L2008.22 138.412 L2012.5 138.412 L2012.5 142.44 Q2013.96 140.055 2015.99 138.921 Q2018.03 137.787 2020.83 137.787 Q2023.66 137.787 2025.62 139.222 Q2027.61 140.657 2028.56 143.389 Z" fill="#000000" fill-rule="evenodd" fill-opacity="1"></path><path clip-path="url(#clip170)" d="M2076.73 150.31 L2076.73 152.393 L2057.15 152.393 Q2057.43 156.791 2059.79 159.106 Q2062.17 161.398 2066.41 161.398 Q2068.86 161.398 2071.16 160.796 Q2073.47 160.194 2075.74 158.99 L2075.74 163.018 Q2073.45 163.99 2071.04 164.5 Q2068.63 165.009 2066.16 165.009 Q2059.95 165.009 2056.32 161.398 Q2052.71 157.787 2052.71 151.629 Q2052.71 145.264 2056.13 141.537 Q2059.58 137.787 2065.41 137.787 Q2070.65 137.787 2073.68 141.166 Q2076.73 144.523 2076.73 150.31 M2072.48 149.06 Q2072.43 145.565 2070.51 143.481 Q2068.61 141.398 2065.46 141.398 Q2061.9 141.398 2059.74 143.412 Q2057.61 145.426 2057.29 149.083 L2072.48 149.06 Z" fill="#000000" fill-rule="evenodd" fill-opacity="1"></path><path clip-path="url(#clip170)" d="M2115.32 139.176 L2115.32 143.203 Q2113.52 142.277 2111.57 141.815 Q2109.63 141.352 2107.54 141.352 Q2104.37 141.352 2102.78 142.324 Q2101.2 143.296 2101.2 145.24 Q2101.2 146.722 2102.34 147.578 Q2103.47 148.412 2106.9 149.176 L2108.35 149.5 Q2112.89 150.472 2114.79 152.254 Q2116.71 154.014 2116.71 157.185 Q2116.71 160.796 2113.84 162.902 Q2110.99 165.009 2105.99 165.009 Q2103.91 165.009 2101.64 164.592 Q2099.4 164.199 2096.9 163.388 L2096.9 158.99 Q2099.26 160.217 2101.55 160.842 Q2103.84 161.444 2106.09 161.444 Q2109.1 161.444 2110.72 160.426 Q2112.34 159.384 2112.34 157.509 Q2112.34 155.773 2111.16 154.847 Q2110 153.921 2106.04 153.064 L2104.56 152.717 Q2100.6 151.884 2098.84 150.171 Q2097.08 148.435 2097.08 145.426 Q2097.08 141.768 2099.67 139.778 Q2102.27 137.787 2107.04 137.787 Q2109.4 137.787 2111.48 138.134 Q2113.56 138.481 2115.32 139.176 Z" fill="#000000" fill-rule="evenodd" fill-opacity="1"></path><path clip-path="url(#clip170)" d="M2145.67 150.31 L2145.67 152.393 L2126.09 152.393 Q2126.36 156.791 2128.72 159.106 Q2131.11 161.398 2135.35 161.398 Q2137.8 161.398 2140.09 160.796 Q2142.41 160.194 2144.67 158.99 L2144.67 163.018 Q2142.38 163.99 2139.97 164.5 Q2137.57 165.009 2135.09 165.009 Q2128.89 165.009 2125.25 161.398 Q2121.64 157.787 2121.64 151.629 Q2121.64 145.264 2125.07 141.537 Q2128.52 137.787 2134.35 137.787 Q2139.58 137.787 2142.61 141.166 Q2145.67 144.523 2145.67 150.31 M2141.41 149.06 Q2141.36 145.565 2139.44 143.481 Q2137.54 141.398 2134.4 141.398 Q2130.83 141.398 2128.68 143.412 Q2126.55 145.426 2126.22 149.083 L2141.41 149.06 Z" fill="#000000" fill-rule="evenodd" fill-opacity="1"></path><path clip-path="url(#clip170)" d="M2167.68 142.393 Q2166.97 141.977 2166.11 141.791 Q2165.28 141.583 2164.26 141.583 Q2160.65 141.583 2158.7 143.944 Q2156.78 146.282 2156.78 150.68 L2156.78 164.338 L2152.5 164.338 L2152.5 138.412 L2156.78 138.412 L2156.78 142.44 Q2158.12 140.078 2160.28 138.944 Q2162.43 137.787 2165.51 137.787 Q2165.95 137.787 2166.48 137.856 Q2167.01 137.903 2167.66 138.018 L2167.68 142.393 Z" fill="#000000" fill-rule="evenodd" fill-opacity="1"></path><path clip-path="url(#clip170)" d="M2172.15 138.412 L2176.41 138.412 L2176.41 164.338 L2172.15 164.338 L2172.15 138.412 M2172.15 128.319 L2176.41 128.319 L2176.41 133.713 L2172.15 133.713 L2172.15 128.319 Z" fill="#000000" fill-rule="evenodd" fill-opacity="1"></path><path clip-path="url(#clip170)" d="M2207.5 150.31 L2207.5 152.393 L2187.91 152.393 Q2188.19 156.791 2190.55 159.106 Q2192.94 161.398 2197.17 161.398 Q2199.63 161.398 2201.92 160.796 Q2204.23 160.194 2206.5 158.99 L2206.5 163.018 Q2204.21 163.99 2201.8 164.5 Q2199.4 165.009 2196.92 165.009 Q2190.72 165.009 2187.08 161.398 Q2183.47 157.787 2183.47 151.629 Q2183.47 145.264 2186.9 141.537 Q2190.34 137.787 2196.18 137.787 Q2201.41 137.787 2204.44 141.166 Q2207.5 144.523 2207.5 150.31 M2203.24 149.06 Q2203.19 145.565 2201.27 143.481 Q2199.37 141.398 2196.22 141.398 Q2192.66 141.398 2190.51 143.412 Q2188.38 145.426 2188.05 149.083 L2203.24 149.06 Z" fill="#000000" fill-rule="evenodd" fill-opacity="1"></path><path clip-path="url(#clip170)" d="M2231.02 139.176 L2231.02 143.203 Q2229.21 142.277 2227.27 141.815 Q2225.32 141.352 2223.24 141.352 Q2220.07 141.352 2218.47 142.324 Q2216.9 143.296 2216.9 145.24 Q2216.9 146.722 2218.03 147.578 Q2219.16 148.412 2222.59 149.176 L2224.05 149.5 Q2228.59 150.472 2230.48 152.254 Q2232.4 154.014 2232.4 157.185 Q2232.4 160.796 2229.53 162.902 Q2226.69 165.009 2221.69 165.009 Q2219.6 165.009 2217.34 164.592 Q2215.09 164.199 2212.59 163.388 L2212.59 158.99 Q2214.95 160.217 2217.24 160.842 Q2219.53 161.444 2221.78 161.444 Q2224.79 161.444 2226.41 160.426 Q2228.03 159.384 2228.03 157.509 Q2228.03 155.773 2226.85 154.847 Q2225.69 153.921 2221.73 153.064 L2220.25 152.717 Q2216.29 151.884 2214.53 150.171 Q2212.78 148.435 2212.78 145.426 Q2212.78 141.768 2215.37 139.778 Q2217.96 137.787 2222.73 137.787 Q2225.09 137.787 2227.17 138.134 Q2229.26 138.481 2231.02 139.176 Z" fill="#000000" fill-rule="evenodd" fill-opacity="1"></path></svg>